<svg xmlns="http://www.w3.org/2000/svg" width="100" height="100" viewBox="0 0 100 100" role="img" aria-label="Avatar 09">
  <rect width="100" height="100" rx="22" fill="#EAFCEB"/>
  <rect x="28" y="28" width="8" height="8" fill="#2F8F46"/>
  <rect x="36" y="28" width="8" height="8" fill="#35A84F"/>
  <rect x="44" y="28" width="8" height="8" fill="#2F8F46"/>
  <rect x="52" y="36" width="8" height="8" fill="#35A84F"/>
  <rect x="44" y="44" width="8" height="8" fill="#3BB85A"/>
  <rect x="36" y="44" width="8" height="8" fill="#2F8F46"/>
  <rect x="28" y="52" width="8" height="8" fill="#35A84F"/>
  <rect x="36" y="52" width="8" height="8" fill="#3BB85A"/>
  <rect x="44" y="52" width="8" height="8" fill="#2F8F46"/>
  <rect x="52" y="52" width="8" height="8" fill="#35A84F"/>
  <rect x="60" y="52" width="8" height="8" fill="#2F8F46"/>
  <rect x="52" y="60" width="8" height="8" fill="#3BB85A"/>
  <rect x="60" y="60" width="8" height="8" fill="#2F8F46"/>
  <rect x="44" y="68" width="8" height="8" fill="#5E3A1D"/>
</svg>